<mxfile host="Electron" agent="Mozilla/5.0 (Windows NT 10.0; Win64; x64) AppleWebKit/537.36 (KHTML, like Gecko) draw.io/25.0.1 Chrome/128.0.6613.186 Electron/32.2.6 Safari/537.36" version="25.0.1" pages="2">
  <diagram id="hLfnZEfCcq6127PfEtSk" name="managed-identity">
    <mxGraphModel dx="683" dy="421" grid="1" gridSize="10" guides="1" tooltips="1" connect="1" arrows="1" fold="1" page="0" pageScale="1" pageWidth="827" pageHeight="1169" math="0" shadow="0">
      <root>
        <mxCell id="0" />
        <mxCell id="1" parent="0" />
        <mxCell id="xsKUVjbPRzLrdIw6ebMD-2" value="" style="rounded=1;whiteSpace=wrap;html=1;strokeColor=#1890f1;dashed=1;" parent="1" vertex="1">
          <mxGeometry x="61" y="400" width="200" height="270" as="geometry" />
        </mxCell>
        <mxCell id="lnF6oPftVDVQoWuEvHUH-1" value="" style="rounded=1;whiteSpace=wrap;html=1;strokeColor=#1890f1;dashed=1;" parent="1" vertex="1">
          <mxGeometry x="320" y="400" width="200" height="270" as="geometry" />
        </mxCell>
        <mxCell id="lnF6oPftVDVQoWuEvHUH-3" value="App Registration" style="text;html=1;align=center;verticalAlign=middle;whiteSpace=wrap;rounded=0;labelBackgroundColor=none;fontColor=#1890f1;fontSize=15;fontFamily=segoe ui;" parent="1" vertex="1">
          <mxGeometry x="325" y="623" width="190" height="20" as="geometry" />
        </mxCell>
        <mxCell id="lnF6oPftVDVQoWuEvHUH-13" value="Contoso" style="text;html=1;align=center;verticalAlign=middle;whiteSpace=wrap;rounded=0;fillColor=#d5e8d4;strokeColor=#82b366;fontSize=14;fontStyle=1" parent="1" vertex="1">
          <mxGeometry x="320" y="360" width="200" height="30" as="geometry" />
        </mxCell>
        <mxCell id="xsKUVjbPRzLrdIw6ebMD-1" value="Litware" style="text;html=1;align=center;verticalAlign=middle;whiteSpace=wrap;rounded=0;fillColor=#dae8fc;strokeColor=#6c8ebf;fontSize=14;fontStyle=1" parent="1" vertex="1">
          <mxGeometry x="61" y="360" width="200" height="30" as="geometry" />
        </mxCell>
        <mxCell id="AHfRvTJC-ITGiOR7HZ-c-1" value="" style="shape=image;verticalLabelPosition=bottom;labelBackgroundColor=default;verticalAlign=top;aspect=fixed;imageAspect=0;image=data:image/svg+xml,PHN2ZyB4bWxuczp4bGluaz0iaHR0cDovL3d3dy53My5vcmcvMTk5OS94bGluayIgeG1sbnM9Imh0dHA6Ly93d3cudzMub3JnLzIwMDAvc3ZnIiBkYXRhLXR5cGU9IjEiIGlkPSJGeFN5bWJvbDAtMDU0IiByb2xlPSJwcmVzZW50YXRpb24iIGNsYXNzPSIiIHZpZXdCb3g9IjAgMCA3Ni4wMzEgMTAwIj48Zz48dGl0bGUvPjx0aXRsZT5NU0lfMjwvdGl0bGU+PHBhdGggZmlsbD0iI2ZjZDExNiIgY2xhc3M9Im1zcG9ydGFsZngtc3ZnLWMxMSIgZD0iTTI4LjI4NCA4MS44NWE1LjA3IDUuMDcgMCAwIDEgMC03LjE3MmwxMS4xMjgtMTEuMTI3VjUzLjZsMTYuNDMzLTE2LjQzNGExMC44MyAxMC44MyAwIDAgMCAwLTE1LjMxNEwzNy4xNjYgMy4xNzJhMTAuODMxIDEwLjgzMSAwIDAgMC0xNS4zMTYgMEwzLjE3MiAyMS44NTJhMTAuODI4IDEwLjgyOCAwIDAgMCAwIDE1LjMxNEwyMC45MDggNTQuOXYxLjVsLTUuMDQ5IDUuMDUgNS4wMDUgNS4wMDUtNS4wMDUgNSA1LjAwNSA1LjAwNS01LjAwNSA1IDUuMDQ5IDUuMDV2LjA2M2w4LjYgOC42IDYuMDUxLTYuMDUxWm0tNC45MjMtNjguMDE2YTYuMTQ3IDYuMTQ3IDAgMSAxIDYuMTQ3IDYuMTQ3IDYuMTQ4IDYuMTQ4IDAgMCAxLTYuMTQ3LTYuMTQ3WiIvPjxwYXRoIGZpbGw9IiNmZmZmZmYiIGNsYXNzPSJtc3BvcnRhbGZ4LXN2Zy1jMDEiIGQ9Ik0xMi4zNjQgMjUuOTJoMzUuNDgydjUuMUgxMi4zNjR6bTAgOC4yOTdoMzUuNDgydjUuMUgxMi4zNjR6IiBvcGFjaXR5PSIuNSIvPjxwYXRoIGZpbGw9IiM1OWI0ZDkiIGNsYXNzPSJtc3BvcnRhbGZ4LXN2Zy1jMTUiIGQ9Ik01NC4zIDEwMGEzLjk3OCAzLjk3OCAwIDAgMS0yLjgzNS0xLjE3NUwzMy43MzUgODEuMWE0LjAwOCA0LjAwOCAwIDAgMSAwLTUuNjdMNTEuNDYxIDU3LjdhNC4wMDUgNC4wMDUgMCAwIDEgNS42NyAwbDE3LjcyNCAxNy43MjlhNC4wMDYgNC4wMDYgMCAwIDEgMCA1LjY3Mkw1Ny4xMzEgOTguODI1QTMuOTc4IDMuOTc4IDAgMCAxIDU0LjMgMTAwIi8+PHBhdGggZmlsbD0iI2ZmZmZmZiIgY2xhc3M9Im1zcG9ydGFsZngtc3ZnLWMwMSIgZD0iTTY2LjEzMiA3NC44NjdhMy4zOTMgMy4zOTMgMCAwIDAtMi44MzkgNS4yNjJsLTYuNzMzIDYuNzMyYTMuOTkxIDMuOTkxIDAgMCAwLS41Ny0uMzI0VjY5LjM2YTMuNCAzLjQgMCAxIDAtMy4zODggMHYxNy4xNzZhMy45MjkgMy45MjkgMCAwIDAtLjU1LjMwN2wtNi43NC02Ljc0YTMuNDkzIDMuNDkzIDAgMSAwLTEuNzQ0IDEuMzYxbDcuMDg1IDcuMDg2YTMuOTU3IDMuOTU3IDAgMSAwIDcuMjkyLjAyOGw3LjEwNi03LjEwNWEzLjM1NiAzLjM1NiAwIDAgMCAxLjA3OS4xOTEgMy40IDMuNCAwIDAgMCAwLTYuOFoiLz48cGF0aCBmaWxsPSIjZmZmZmZmIiBjbGFzcz0ibXNwb3J0YWxmeC1zdmctYzAxIiBkPSJtNTMuNDg0IDY3LjA5MiAxLjU1LTEuNTUyIDEyLjcxNCAxMi43MS0xLjU1MiAxLjU1MXoiIG9wYWNpdHk9Ii41Ii8+PHBhdGggZmlsbD0iI2ZmZmZmZiIgY2xhc3M9Im1zcG9ydGFsZngtc3ZnLWMwMSIgZD0iTTQwLjg1OSA3OC4yNjIgNTMuNTcgNjUuNTVsMS41NTIgMS41NTFMNDIuNDEgNzkuODEzeiIgb3BhY2l0eT0iLjUiLz48cGF0aCBmaWxsPSIjYjhkNDMyIiBjbGFzcz0ibXNwb3J0YWxmeC1zdmctYzEzIiBkPSJNNTYuNjEyIDkwLjFhMi4zNTYgMi4zNTYgMCAxIDEtMi4zNTYtMi4zNTUgMi4zNTUgMi4zNTUgMCAwIDEgMi4zNTYgMi4zNTVtLS40MjctMjMuNjdhMS44OSAxLjg5IDAgMSAxLTEuODktMS44OSAxLjg4OSAxLjg4OSAwIDAgMSAxLjg5IDEuODlNNDQuMzUyIDc4LjI2NWExLjg5IDEuODkgMCAxIDEtMS44OS0xLjg5IDEuODkxIDEuODkxIDAgMCAxIDEuODkgMS44OW0yMy42NyAwYTEuODkxIDEuODkxIDAgMSAxLTEuODkxLTEuODkgMS44OTEgMS44OTEgMCAwIDEgMS44OTEgMS44OSIvPjxwYXRoIGZpbGw9IiNmZmZmZmYiIGNsYXNzPSJtc3BvcnRhbGZ4LXN2Zy1jMDEiIG9wYWNpdHk9Ii4xIiBkPSJNNTcuMTMxIDU3LjdhNCA0IDAgMCAwLTUuNjY5IDBMMzMuNzM1IDc1LjQyOWE0LjAwOCA0LjAwOCAwIDAgMCAwIDUuNjdsMTAuMDM2IDEwLjAzNkw2Mi42NSA2My4yMjJaIi8+PHBhdGggZmlsbD0iI2ZmOGMwMCIgY2xhc3M9Im1zcG9ydGFsZngtc3ZnLWMxMCIgZD0iTTM0Ljc4OCA2OC4xMzd2LTEyLjkybC0zLjg2NCAxLjkwM3YxNC44ODFsMy44NjQtMy44NjR6IiBvcGFjaXR5PSIuNCIvPjwvZz48ZGVmcz4mI3hhOzwvZGVmcz4mI3hhOzwvc3ZnPg==;" parent="1" vertex="1">
          <mxGeometry x="397.2" y="426" width="45.6" height="60" as="geometry" />
        </mxCell>
        <mxCell id="AHfRvTJC-ITGiOR7HZ-c-3" value="Managed Identity" style="text;html=1;align=center;verticalAlign=middle;whiteSpace=wrap;rounded=0;labelBackgroundColor=none;fontColor=#1890f1;fontSize=15;fontFamily=segoe ui;" parent="1" vertex="1">
          <mxGeometry x="320" y="492" width="200" height="20" as="geometry" />
        </mxCell>
        <mxCell id="TSP3_tozIQkyt-yFuGF8-1" value="" style="rounded=0;orthogonalLoop=1;jettySize=auto;html=1;entryX=0.545;entryY=0.37;entryDx=0;entryDy=0;entryPerimeter=0;" edge="1" parent="1">
          <mxGeometry relative="1" as="geometry">
            <mxPoint x="164.5887191539366" y="545" as="sourcePoint" />
            <mxPoint x="164" y="494.9" as="targetPoint" />
          </mxGeometry>
        </mxCell>
        <mxCell id="AHfRvTJC-ITGiOR7HZ-c-8" value="" style="shape=image;verticalLabelPosition=bottom;labelBackgroundColor=default;verticalAlign=top;aspect=fixed;imageAspect=0;image=data:image/svg+xml,PHN2ZyB4bWxucz0iaHR0cDovL3d3dy53My5vcmcvMjAwMC9zdmciIHhtbG5zOnhsaW5rPSJodHRwOi8vd3d3LnczLm9yZy8xOTk5L3hsaW5rIiBkYXRhLXR5cGU9IjEiIGlkPSJGeFN5bWJvbDAtMGYyIiByb2xlPSJwcmVzZW50YXRpb24iIGNsYXNzPSJmeHMtcG9ydGFsLXN2ZyIgdmlld0JveD0iMCAwIDUwIDUwIj48Zz48dGl0bGUvPjx0aXRsZT5pY29uc18wNzIyMTY8L3RpdGxlPjxwYXRoIGZpbGw9IiMwMDcyYzYiIGNsYXNzPSJtc3BvcnRhbGZ4LXN2Zy1jMTkiIGQ9Ik0wIDJoMTF2MTFIMHptMTMgMGgxMnYxMUgxM3ptMTQgMGgxMXYxMUgyN3pNMCAxNWgxMXYxMUgwem0xMyAwaDEydjExSDEzem0xNCAwaDExdjExSDI3ek0wIDI4aDExdjEySDB6bTEzIDBoMTJ2MTJIMTN6bTE0IDBoMTF2MTJIMjd6Ii8+PGNpcmNsZSBmaWxsPSIjNTliNGQ5IiBjbGFzcz0ibXNwb3J0YWxmeC1zdmctYzE1IiBzdHJva2Utd2lkdGg9Ii4xOTQiIHN0cm9rZS1taXRlcmxpbWl0PSIxMCIgc3Ryb2tlPSIjNTliNGQ5IiByPSIxMy41IiBjeT0iMzUuMSIgY3g9IjMyLjMiLz48cGF0aCBmaWxsPSIjYjhkNDMyIiBjbGFzcz0ibXNwb3J0YWxmeC1zdmctYzEzIiBkPSJNNDUuODQ5IDM0LjYzNmwtNC41MjItNC41MjJhMS41ODEgMS41ODEgMCAwIDAtMi4zNDggMCAxLjY1MyAxLjY1MyAwIDAgMCAwIDIuMzQ4bC0xLjczOS0xLjczOWExLjY2IDEuNjYgMCAwIDAtMi4zNDggMi4zNDhsMy45MDggMy45MTMuNzgzLjc4MyAxLjMgMS4zYTEuNjYgMS42NiAwIDAgMS0yLjM0OCAyLjM0OGwtMS4zLTEuMy0uNTIyLS41MjItLjctLjdhMS42NiAxLjY2IDAgMCAwLTIuMzQ4IDIuMzQ4bDIuNyAyLjdhMS42NiAxLjY2IDAgMSAwLTIuMzQ4IDIuMzQ4bDEuOTE3IDEuOTExYTEzLjIxMyAxMy4yMTMgMCAwIDAgOS45MTQtMTMuNTY3em0tMjIuMTU0IDMuODk3YTIgMiAwIDAgMCAwLTIuOTU3TDIxLjUyMSAzMy40YTIgMiAwIDAgMCAyLjk1NyAwIDIuMTM3IDIuMTM3IDAgMCAwIC40MzUtMi4zNDhsMi45NTcgMi45NTdhMiAyIDAgMCAwIDIuOTU3IDAgMi4wNzMgMi4wNzMgMCAwIDAgMC0yLjk1N2wtMi42MDktMi43ODNhMiAyIDAgMCAxIDAtMi45NTcgMi4wNzMgMi4wNzMgMCAwIDEgMi45NTcgMGwxLjM5MSAxLjM5MWEyLjA5MSAyLjA5MSAwIDAgMCAyLjk1Ny0yLjk1N2wtMS45OTMtMi4xOTNhMTIuODg5IDEyLjg4OSAwIDAgMC0xMS4wNzYgNC4wNTNBMTMuNiAxMy42IDAgMCAwIDE4LjggMzYuNjcxbDEuODUxIDEuOTQ5YTIuMTc5IDIuMTc5IDAgMCAwIDMuMDQ0LS4wODd6Ii8+PC9nPjxkZWZzPiYjeGE7PC9kZWZzPiYjeGE7PC9zdmc+;" parent="1" vertex="1">
          <mxGeometry x="136" y="550" width="70" height="70" as="geometry" />
        </mxCell>
        <mxCell id="AHfRvTJC-ITGiOR7HZ-c-9" value="Enterprise application" style="text;html=1;align=center;verticalAlign=middle;whiteSpace=wrap;rounded=0;labelBackgroundColor=none;fontColor=#1890f1;fontSize=15;fontFamily=segoe ui;" parent="1" vertex="1">
          <mxGeometry x="66" y="623" width="190" height="20" as="geometry" />
        </mxCell>
        <mxCell id="AHfRvTJC-ITGiOR7HZ-c-10" value="" style="shape=image;verticalLabelPosition=bottom;labelBackgroundColor=default;verticalAlign=top;aspect=fixed;imageAspect=0;image=data:image/svg+xml,PHN2ZyB4bWxuczp4bGluaz0iaHR0cDovL3d3dy53My5vcmcvMTk5OS94bGluayIgeG1sbnM9Imh0dHA6Ly93d3cudzMub3JnLzIwMDAvc3ZnIiBkYXRhLXR5cGU9IjEiIGlkPSJGeFN5bWJvbDAtMDQyIiByb2xlPSJwcmVzZW50YXRpb24iIGNsYXNzPSIiIHZpZXdCb3g9IjAgMCAxOCAxOCI+PGc+PHRpdGxlPkljb24taWRlbnRpdHktMjMyPC90aXRsZT48cGF0aCBmaWxsPSJ1cmwoI2VmZWI4ZTk2LTJhZjAtNDY4MS05YTZhLTQ1ZjliMDI2MmYxOSkiIGQ9Ik01LjY3IDEwLjYxSDEwdjQuMzJINS42N3ptLTUtNS43Nkg1Vi41M0gxLjIzYS42LjYgMCAwIDAtLjYuNnptLjYgMTAuMDhINXYtNC4zMkguNjN2My43MmEuNi42IDAgMCAwIC42LjZ6bS0uNi01SDVWNS41N0guNjN6bTEwLjA4IDVoMy43MmEuNi42IDAgMCAwIC42LS42di0zLjcyaC00LjM2em0tNS01SDEwVjUuNTdINS42N3ptNSAwSDE1VjUuNTdoLTQuMjl6bTAtOS4zNnY0LjI4SDE1VjEuMTNhLjYuNiAwIDAgMC0uNi0uNnptLTUgNC4zMkgxMFYuNTNINS42N3oiLz48cGF0aCBkPSJNMTcuMzcgMTAuN3Y0LjUxbC0zLjg3IDIuMjZ2LTQuNTFsMy44Ny0yLjI2eiIgZmlsbD0iIzMyYmVkZCIvPjxwYXRoIGQ9Ik0xNy4zNyAxMC43bC0zLjg3IDIuMjctMy44Ny0yLjI3IDMuODctMi4yNiAzLjg3IDIuMjZ6IiBmaWxsPSIjOWNlYmZmIi8+PHBhdGggZD0iTTEzLjUgMTIuOTd2NC41bC0zLjg3LTIuMjZWMTAuN2wzLjg3IDIuMjd6IiBmaWxsPSIjNTBlNmZmIi8+PHBhdGggZD0iTTkuNjMgMTUuMjFsMy44Ny0yLjI1djQuNTFsLTMuODctMi4yNnoiIGZpbGw9IiM5Y2ViZmYiLz48cGF0aCBkPSJNMTcuMzcgMTUuMjFsLTMuODctMi4yNXY0LjUxbDMuODctMi4yNnoiIGZpbGw9IiM1MGU2ZmYiLz48L2c+PGRlZnM+JiN4YTs8bGluZWFyR3JhZGllbnQgZ3JhZGllbnRVbml0cz0idXNlclNwYWNlT25Vc2UiIGdyYWRpZW50VHJhbnNmb3JtPSJtYXRyaXgoLjUgMCAwIC0uNSAzMjY3LjQyIDU1OS45OSkiIHkyPSIxMDkwLjA2IiB4Mj0iLTY1MTguNzgiIHkxPSIxMTE4Ljg2IiB4MT0iLTY1MTguNzgiIGlkPSJlZmViOGU5Ni0yYWYwLTQ2ODEtOWE2YS00NWY5YjAyNjJmMTkiPjxzdG9wIHN0b3AtY29sb3I9IiM1ZWEwZWYiIG9mZnNldD0iMCIvPjxzdG9wIHN0b3AtY29sb3I9IiM1ODllZWQiIG9mZnNldD0iLjE4Ii8+PHN0b3Agc3RvcC1jb2xvcj0iIzQ4OTdlOSIgb2Zmc2V0PSIuNDEiLz48c3RvcCBzdG9wLWNvbG9yPSIjMmU4Y2UxIiBvZmZzZXQ9Ii42NiIvPjxzdG9wIHN0b3AtY29sb3I9IiMwYTdjZDciIG9mZnNldD0iLjk0Ii8+PHN0b3Agc3RvcC1jb2xvcj0iIzAwNzhkNCIgb2Zmc2V0PSIxIi8+PC9saW5lYXJHcmFkaWVudD4mI3hhOzwvZGVmcz4mI3hhOzwvc3ZnPg==;" parent="1" vertex="1">
          <mxGeometry x="385" y="550" width="70" height="70" as="geometry" />
        </mxCell>
        <mxCell id="AHfRvTJC-ITGiOR7HZ-c-13" style="edgeStyle=orthogonalEdgeStyle;rounded=0;orthogonalLoop=1;jettySize=auto;html=1;startArrow=classic;startFill=1;endArrow=none;endFill=0;" parent="1" edge="1">
          <mxGeometry relative="1" as="geometry">
            <mxPoint x="218.5" y="462" as="sourcePoint" />
            <mxPoint x="360" y="462" as="targetPoint" />
          </mxGeometry>
        </mxCell>
        <mxCell id="HmTIUwLq90waMyaoO7ih-4" value="" style="group" parent="1" vertex="1" connectable="0">
          <mxGeometry x="118.5" y="433" width="98" height="28" as="geometry" />
        </mxCell>
        <mxCell id="AHfRvTJC-ITGiOR7HZ-c-11" value="" style="shape=image;verticalLabelPosition=bottom;labelBackgroundColor=default;verticalAlign=top;aspect=fixed;imageAspect=0;image=data:image/svg+xml,PHN2ZyB4bWxucz0iaHR0cDovL3d3dy53My5vcmcvMjAwMC9zdmciIHhtbG5zOnhsaW5rPSJodHRwOi8vd3d3LnczLm9yZy8xOTk5L3hsaW5rIiBkYXRhLXR5cGU9IjE3OSIgaWQ9IkZ4U3ltYm9sMC0wMjMiIHJvbGU9InByZXNlbnRhdGlvbiIgY2xhc3M9IiIgZGF0YS1pc2xvZ289InRydWUiIHZpZXdCb3g9IjAgMCAxOCAxOCI+PGc+PHRpdGxlLz48cGF0aCBmaWxsPSIjOTQ5NDk0IiBkPSJNLjUgMTUuMDhhLjE2LjE2IDAgMCAwIC4wOC4xNGwxLjE2LjY1TDMuNyAxN2EuMTcuMTcgMCAwIDAgLjIzLS4wNmwuNjYtMS4xMmEuMTYuMTYgMCAwIDAtLjA2LS4yMWwtMi4zLTEuM2EuMTcuMTcgMCAwIDEtLjA4LS4xNFYzLjg1YS4xNi4xNiAwIDAgMSAuMDgtLjE0bDIuMy0xLjNhLjE2LjE2IDAgMCAwIC4wNi0uMjFsLS42Ni0xLjEyQS4xNy4xNyAwIDAgMCAzLjcgMUwxLjc4IDIuMTFsLTEuMi42N2EuMTYuMTYgMCAwIDAtLjA4LjE0djEyLjE2eiIvPjxwYXRoIGZpbGw9IiNhM2EzYTMiIGQ9Ik0yLjE0IDMuNzdsLjA2LS4wNiAyLjMtMS4zYS4xNC4xNCAwIDAgMCAuMDYtLjIxTDMuOSAxLjA4QS4xNS4xNSAwIDAgMCAzLjY4IDFMMS43NSAyLjExbC0xLjE5LjY3cy0uMDUgMC0uMDYuMDZsLjkuNTF6TTQuNSAxNS41OWwtMi4zLTEuM2EuMjIuMjIgMCAwIDEtLjA3LS4wOWwtMS42MiAxaC4wNWwxLjE1LjY1IDIgMS4xMWEuMTUuMTUgMCAwIDAgLjIyLS4wNmwuNjYtMS4xMmEuMTQuMTQgMCAwIDAtLjA5LS4xOXoiLz48cGF0aCBmaWxsPSIjOTQ5NDk0IiBkPSJNMTcuNSAxNS4wOGEuMTYuMTYgMCAwIDEtLjA4LjE0bC0xLjE2LjY1TDE0LjMgMTdhLjE3LjE3IDAgMCAxLS4yMy0uMDZsLS42Ni0xLjEyYS4xNi4xNiAwIDAgMSAuMDYtLjIxbDIuMy0xLjNhLjE3LjE3IDAgMCAwIC4wOC0uMTRWMy44NWEuMTYuMTYgMCAwIDAtLjA4LS4xNGwtMi4zLTEuM2EuMTYuMTYgMCAwIDEtLjA2LS4yMWwuNjYtMS4xMkEuMTcuMTcgMCAwIDEgMTQuMyAxbDEuOTIgMS4wOSAxLjIuNjdhLjE2LjE2IDAgMCAxIC4wOC4xNHYxMi4xOHoiLz48cGF0aCBmaWxsPSIjYTNhM2EzIiBkPSJNMTUuODYgMy43N2wtLjA2LS4wNi0yLjMtMS4zYS4xNC4xNCAwIDAgMS0uMDYtLjIxbC42Ni0xLjEyYS4xNS4xNSAwIDAgMSAuMjItLjA4bDEuOTMgMS4wOSAxLjE5LjY3LjA2LjA2LS45LjUxek0xMy41IDE1LjU5bDIuMy0xLjNhLjIyLjIyIDAgMCAwIC4wNy0uMDlsMS42MiAxLTEuMTUuNjUtMiAxLjExYS4xNS4xNSAwIDAgMS0uMjItLjA2bC0uNjYtMS4xMmEuMTQuMTQgMCAwIDEgLjA0LS4xOXoiLz48cGF0aCBkPSJNMTQuMzEgNS45M3Y2LjE0bC01LjMyIDMuMDlWOS4wMWw1LjMyLTMuMDh6IiBmaWxsPSIjMzJiZWRkIi8+PHBhdGggZD0iTTE0LjMxIDUuOTNMOSA5LjAyIDMuNjggNS45MyA5IDIuODRsNS4zMSAzLjA5eiIgZmlsbD0iIzljZWJmZiIvPjxwYXRoIGQ9Ik04Ljk5IDkuMDJ2Ni4xNGwtNS4zMS0zLjA5VjUuOTNsNS4zMSAzLjA5eiIgZmlsbD0iIzUwZTZmZiIvPjxwYXRoIGQ9Ik0zLjY4IDEyLjA3bDUuMzEtMy4wNnY2LjE1bC01LjMxLTMuMDl6IiBmaWxsPSIjOWNlYmZmIi8+PHBhdGggZD0iTTE0LjMxIDEyLjA3TDguOTkgOS4wMXY2LjE1bDUuMzItMy4wOXoiIGZpbGw9IiM1MGU2ZmYiLz48L2c+PGRlZnM+JiN4YTs8L2RlZnM+JiN4YTs8L3N2Zz4=;" parent="HmTIUwLq90waMyaoO7ih-4" vertex="1">
          <mxGeometry width="28" height="28" as="geometry" />
        </mxCell>
        <mxCell id="HmTIUwLq90waMyaoO7ih-2" value="rg-app1" style="text;html=1;align=center;verticalAlign=bottom;whiteSpace=wrap;rounded=0;labelBackgroundColor=none;fontColor=#1890f1;fontSize=15;fontFamily=segoe ui;" parent="HmTIUwLq90waMyaoO7ih-4" vertex="1">
          <mxGeometry x="28" y="4" width="70" height="20" as="geometry" />
        </mxCell>
        <mxCell id="HmTIUwLq90waMyaoO7ih-5" value="" style="group" parent="1" vertex="1" connectable="0">
          <mxGeometry x="118.5" y="462" width="98" height="28" as="geometry" />
        </mxCell>
        <mxCell id="HmTIUwLq90waMyaoO7ih-6" value="" style="shape=image;verticalLabelPosition=bottom;labelBackgroundColor=default;verticalAlign=top;aspect=fixed;imageAspect=0;image=data:image/svg+xml,PHN2ZyB4bWxucz0iaHR0cDovL3d3dy53My5vcmcvMjAwMC9zdmciIHhtbG5zOnhsaW5rPSJodHRwOi8vd3d3LnczLm9yZy8xOTk5L3hsaW5rIiBkYXRhLXR5cGU9IjE3OSIgaWQ9IkZ4U3ltYm9sMC0wMjMiIHJvbGU9InByZXNlbnRhdGlvbiIgY2xhc3M9IiIgZGF0YS1pc2xvZ289InRydWUiIHZpZXdCb3g9IjAgMCAxOCAxOCI+PGc+PHRpdGxlLz48cGF0aCBmaWxsPSIjOTQ5NDk0IiBkPSJNLjUgMTUuMDhhLjE2LjE2IDAgMCAwIC4wOC4xNGwxLjE2LjY1TDMuNyAxN2EuMTcuMTcgMCAwIDAgLjIzLS4wNmwuNjYtMS4xMmEuMTYuMTYgMCAwIDAtLjA2LS4yMWwtMi4zLTEuM2EuMTcuMTcgMCAwIDEtLjA4LS4xNFYzLjg1YS4xNi4xNiAwIDAgMSAuMDgtLjE0bDIuMy0xLjNhLjE2LjE2IDAgMCAwIC4wNi0uMjFsLS42Ni0xLjEyQS4xNy4xNyAwIDAgMCAzLjcgMUwxLjc4IDIuMTFsLTEuMi42N2EuMTYuMTYgMCAwIDAtLjA4LjE0djEyLjE2eiIvPjxwYXRoIGZpbGw9IiNhM2EzYTMiIGQ9Ik0yLjE0IDMuNzdsLjA2LS4wNiAyLjMtMS4zYS4xNC4xNCAwIDAgMCAuMDYtLjIxTDMuOSAxLjA4QS4xNS4xNSAwIDAgMCAzLjY4IDFMMS43NSAyLjExbC0xLjE5LjY3cy0uMDUgMC0uMDYuMDZsLjkuNTF6TTQuNSAxNS41OWwtMi4zLTEuM2EuMjIuMjIgMCAwIDEtLjA3LS4wOWwtMS42MiAxaC4wNWwxLjE1LjY1IDIgMS4xMWEuMTUuMTUgMCAwIDAgLjIyLS4wNmwuNjYtMS4xMmEuMTQuMTQgMCAwIDAtLjA5LS4xOXoiLz48cGF0aCBmaWxsPSIjOTQ5NDk0IiBkPSJNMTcuNSAxNS4wOGEuMTYuMTYgMCAwIDEtLjA4LjE0bC0xLjE2LjY1TDE0LjMgMTdhLjE3LjE3IDAgMCAxLS4yMy0uMDZsLS42Ni0xLjEyYS4xNi4xNiAwIDAgMSAuMDYtLjIxbDIuMy0xLjNhLjE3LjE3IDAgMCAwIC4wOC0uMTRWMy44NWEuMTYuMTYgMCAwIDAtLjA4LS4xNGwtMi4zLTEuM2EuMTYuMTYgMCAwIDEtLjA2LS4yMWwuNjYtMS4xMkEuMTcuMTcgMCAwIDEgMTQuMyAxbDEuOTIgMS4wOSAxLjIuNjdhLjE2LjE2IDAgMCAxIC4wOC4xNHYxMi4xOHoiLz48cGF0aCBmaWxsPSIjYTNhM2EzIiBkPSJNMTUuODYgMy43N2wtLjA2LS4wNi0yLjMtMS4zYS4xNC4xNCAwIDAgMS0uMDYtLjIxbC42Ni0xLjEyYS4xNS4xNSAwIDAgMSAuMjItLjA4bDEuOTMgMS4wOSAxLjE5LjY3LjA2LjA2LS45LjUxek0xMy41IDE1LjU5bDIuMy0xLjNhLjIyLjIyIDAgMCAwIC4wNy0uMDlsMS42MiAxLTEuMTUuNjUtMiAxLjExYS4xNS4xNSAwIDAgMS0uMjItLjA2bC0uNjYtMS4xMmEuMTQuMTQgMCAwIDEgLjA0LS4xOXoiLz48cGF0aCBkPSJNMTQuMzEgNS45M3Y2LjE0bC01LjMyIDMuMDlWOS4wMWw1LjMyLTMuMDh6IiBmaWxsPSIjMzJiZWRkIi8+PHBhdGggZD0iTTE0LjMxIDUuOTNMOSA5LjAyIDMuNjggNS45MyA5IDIuODRsNS4zMSAzLjA5eiIgZmlsbD0iIzljZWJmZiIvPjxwYXRoIGQ9Ik04Ljk5IDkuMDJ2Ni4xNGwtNS4zMS0zLjA5VjUuOTNsNS4zMSAzLjA5eiIgZmlsbD0iIzUwZTZmZiIvPjxwYXRoIGQ9Ik0zLjY4IDEyLjA3bDUuMzEtMy4wNnY2LjE1bC01LjMxLTMuMDl6IiBmaWxsPSIjOWNlYmZmIi8+PHBhdGggZD0iTTE0LjMxIDEyLjA3TDguOTkgOS4wMXY2LjE1bDUuMzItMy4wOXoiIGZpbGw9IiM1MGU2ZmYiLz48L2c+PGRlZnM+JiN4YTs8L2RlZnM+JiN4YTs8L3N2Zz4=;" parent="HmTIUwLq90waMyaoO7ih-5" vertex="1">
          <mxGeometry width="28" height="28" as="geometry" />
        </mxCell>
        <mxCell id="HmTIUwLq90waMyaoO7ih-7" value="rg-app2" style="text;html=1;align=center;verticalAlign=bottom;whiteSpace=wrap;rounded=0;labelBackgroundColor=none;fontColor=#1890f1;fontSize=15;fontFamily=segoe ui;" parent="HmTIUwLq90waMyaoO7ih-5" vertex="1">
          <mxGeometry x="28" y="4" width="70" height="20" as="geometry" />
        </mxCell>
        <mxCell id="HmTIUwLq90waMyaoO7ih-8" style="edgeStyle=orthogonalEdgeStyle;rounded=0;orthogonalLoop=1;jettySize=auto;html=1;startArrow=none;startFill=0;endArrow=classic;endFill=1;" parent="1" edge="1">
          <mxGeometry relative="1" as="geometry">
            <mxPoint x="218.5" y="582" as="sourcePoint" />
            <mxPoint x="360" y="582" as="targetPoint" />
          </mxGeometry>
        </mxCell>
        <mxCell id="TSP3_tozIQkyt-yFuGF8-2" value="Role assignment" style="text;html=1;align=left;verticalAlign=middle;whiteSpace=wrap;rounded=0;labelBackgroundColor=none;fontColor=#1890f1;fontSize=12;fontFamily=segoe ui;" vertex="1" parent="1">
          <mxGeometry x="170" y="513" width="50" height="20" as="geometry" />
        </mxCell>
      </root>
    </mxGraphModel>
  </diagram>
  <diagram name="Copy of managed-identity" id="GKs1xI60zpstRPKhR5h9">
    <mxGraphModel dx="1014" dy="757" grid="1" gridSize="10" guides="1" tooltips="1" connect="1" arrows="1" fold="1" page="0" pageScale="1" pageWidth="827" pageHeight="1169" math="0" shadow="0">
      <root>
        <mxCell id="cTuRML4901w2NnjAs6sl-0" />
        <mxCell id="cTuRML4901w2NnjAs6sl-1" parent="cTuRML4901w2NnjAs6sl-0" />
        <mxCell id="cTuRML4901w2NnjAs6sl-2" value="" style="rounded=1;whiteSpace=wrap;html=1;strokeColor=#1890f1;dashed=1;" vertex="1" parent="cTuRML4901w2NnjAs6sl-1">
          <mxGeometry x="61" y="400" width="200" height="130" as="geometry" />
        </mxCell>
        <mxCell id="cTuRML4901w2NnjAs6sl-3" value="" style="rounded=1;whiteSpace=wrap;html=1;strokeColor=#1890f1;dashed=1;" vertex="1" parent="cTuRML4901w2NnjAs6sl-1">
          <mxGeometry x="320" y="400" width="200" height="130" as="geometry" />
        </mxCell>
        <mxCell id="cTuRML4901w2NnjAs6sl-5" value="Contoso" style="text;html=1;align=center;verticalAlign=middle;whiteSpace=wrap;rounded=0;fillColor=#d5e8d4;strokeColor=#82b366;fontSize=14;fontStyle=1" vertex="1" parent="cTuRML4901w2NnjAs6sl-1">
          <mxGeometry x="320" y="360" width="200" height="30" as="geometry" />
        </mxCell>
        <mxCell id="cTuRML4901w2NnjAs6sl-6" value="Litware" style="text;html=1;align=center;verticalAlign=middle;whiteSpace=wrap;rounded=0;fillColor=#dae8fc;strokeColor=#6c8ebf;fontSize=14;fontStyle=1" vertex="1" parent="cTuRML4901w2NnjAs6sl-1">
          <mxGeometry x="61" y="360" width="200" height="30" as="geometry" />
        </mxCell>
        <mxCell id="cTuRML4901w2NnjAs6sl-7" value="" style="shape=image;verticalLabelPosition=bottom;labelBackgroundColor=default;verticalAlign=top;aspect=fixed;imageAspect=0;image=data:image/svg+xml,PHN2ZyB4bWxuczp4bGluaz0iaHR0cDovL3d3dy53My5vcmcvMTk5OS94bGluayIgeG1sbnM9Imh0dHA6Ly93d3cudzMub3JnLzIwMDAvc3ZnIiBkYXRhLXR5cGU9IjEiIGlkPSJGeFN5bWJvbDAtMDU0IiByb2xlPSJwcmVzZW50YXRpb24iIGNsYXNzPSIiIHZpZXdCb3g9IjAgMCA3Ni4wMzEgMTAwIj48Zz48dGl0bGUvPjx0aXRsZT5NU0lfMjwvdGl0bGU+PHBhdGggZmlsbD0iI2ZjZDExNiIgY2xhc3M9Im1zcG9ydGFsZngtc3ZnLWMxMSIgZD0iTTI4LjI4NCA4MS44NWE1LjA3IDUuMDcgMCAwIDEgMC03LjE3MmwxMS4xMjgtMTEuMTI3VjUzLjZsMTYuNDMzLTE2LjQzNGExMC44MyAxMC44MyAwIDAgMCAwLTE1LjMxNEwzNy4xNjYgMy4xNzJhMTAuODMxIDEwLjgzMSAwIDAgMC0xNS4zMTYgMEwzLjE3MiAyMS44NTJhMTAuODI4IDEwLjgyOCAwIDAgMCAwIDE1LjMxNEwyMC45MDggNTQuOXYxLjVsLTUuMDQ5IDUuMDUgNS4wMDUgNS4wMDUtNS4wMDUgNSA1LjAwNSA1LjAwNS01LjAwNSA1IDUuMDQ5IDUuMDV2LjA2M2w4LjYgOC42IDYuMDUxLTYuMDUxWm0tNC45MjMtNjguMDE2YTYuMTQ3IDYuMTQ3IDAgMSAxIDYuMTQ3IDYuMTQ3IDYuMTQ4IDYuMTQ4IDAgMCAxLTYuMTQ3LTYuMTQ3WiIvPjxwYXRoIGZpbGw9IiNmZmZmZmYiIGNsYXNzPSJtc3BvcnRhbGZ4LXN2Zy1jMDEiIGQ9Ik0xMi4zNjQgMjUuOTJoMzUuNDgydjUuMUgxMi4zNjR6bTAgOC4yOTdoMzUuNDgydjUuMUgxMi4zNjR6IiBvcGFjaXR5PSIuNSIvPjxwYXRoIGZpbGw9IiM1OWI0ZDkiIGNsYXNzPSJtc3BvcnRhbGZ4LXN2Zy1jMTUiIGQ9Ik01NC4zIDEwMGEzLjk3OCAzLjk3OCAwIDAgMS0yLjgzNS0xLjE3NUwzMy43MzUgODEuMWE0LjAwOCA0LjAwOCAwIDAgMSAwLTUuNjdMNTEuNDYxIDU3LjdhNC4wMDUgNC4wMDUgMCAwIDEgNS42NyAwbDE3LjcyNCAxNy43MjlhNC4wMDYgNC4wMDYgMCAwIDEgMCA1LjY3Mkw1Ny4xMzEgOTguODI1QTMuOTc4IDMuOTc4IDAgMCAxIDU0LjMgMTAwIi8+PHBhdGggZmlsbD0iI2ZmZmZmZiIgY2xhc3M9Im1zcG9ydGFsZngtc3ZnLWMwMSIgZD0iTTY2LjEzMiA3NC44NjdhMy4zOTMgMy4zOTMgMCAwIDAtMi44MzkgNS4yNjJsLTYuNzMzIDYuNzMyYTMuOTkxIDMuOTkxIDAgMCAwLS41Ny0uMzI0VjY5LjM2YTMuNCAzLjQgMCAxIDAtMy4zODggMHYxNy4xNzZhMy45MjkgMy45MjkgMCAwIDAtLjU1LjMwN2wtNi43NC02Ljc0YTMuNDkzIDMuNDkzIDAgMSAwLTEuNzQ0IDEuMzYxbDcuMDg1IDcuMDg2YTMuOTU3IDMuOTU3IDAgMSAwIDcuMjkyLjAyOGw3LjEwNi03LjEwNWEzLjM1NiAzLjM1NiAwIDAgMCAxLjA3OS4xOTEgMy40IDMuNCAwIDAgMCAwLTYuOFoiLz48cGF0aCBmaWxsPSIjZmZmZmZmIiBjbGFzcz0ibXNwb3J0YWxmeC1zdmctYzAxIiBkPSJtNTMuNDg0IDY3LjA5MiAxLjU1LTEuNTUyIDEyLjcxNCAxMi43MS0xLjU1MiAxLjU1MXoiIG9wYWNpdHk9Ii41Ii8+PHBhdGggZmlsbD0iI2ZmZmZmZiIgY2xhc3M9Im1zcG9ydGFsZngtc3ZnLWMwMSIgZD0iTTQwLjg1OSA3OC4yNjIgNTMuNTcgNjUuNTVsMS41NTIgMS41NTFMNDIuNDEgNzkuODEzeiIgb3BhY2l0eT0iLjUiLz48cGF0aCBmaWxsPSIjYjhkNDMyIiBjbGFzcz0ibXNwb3J0YWxmeC1zdmctYzEzIiBkPSJNNTYuNjEyIDkwLjFhMi4zNTYgMi4zNTYgMCAxIDEtMi4zNTYtMi4zNTUgMi4zNTUgMi4zNTUgMCAwIDEgMi4zNTYgMi4zNTVtLS40MjctMjMuNjdhMS44OSAxLjg5IDAgMSAxLTEuODktMS44OSAxLjg4OSAxLjg4OSAwIDAgMSAxLjg5IDEuODlNNDQuMzUyIDc4LjI2NWExLjg5IDEuODkgMCAxIDEtMS44OS0xLjg5IDEuODkxIDEuODkxIDAgMCAxIDEuODkgMS44OW0yMy42NyAwYTEuODkxIDEuODkxIDAgMSAxLTEuODkxLTEuODkgMS44OTEgMS44OTEgMCAwIDEgMS44OTEgMS44OSIvPjxwYXRoIGZpbGw9IiNmZmZmZmYiIGNsYXNzPSJtc3BvcnRhbGZ4LXN2Zy1jMDEiIG9wYWNpdHk9Ii4xIiBkPSJNNTcuMTMxIDU3LjdhNCA0IDAgMCAwLTUuNjY5IDBMMzMuNzM1IDc1LjQyOWE0LjAwOCA0LjAwOCAwIDAgMCAwIDUuNjdsMTAuMDM2IDEwLjAzNkw2Mi42NSA2My4yMjJaIi8+PHBhdGggZmlsbD0iI2ZmOGMwMCIgY2xhc3M9Im1zcG9ydGFsZngtc3ZnLWMxMCIgZD0iTTM0Ljc4OCA2OC4xMzd2LTEyLjkybC0zLjg2NCAxLjkwM3YxNC44ODFsMy44NjQtMy44NjR6IiBvcGFjaXR5PSIuNCIvPjwvZz48ZGVmcz4mI3hhOzwvZGVmcz4mI3hhOzwvc3ZnPg==;" vertex="1" parent="cTuRML4901w2NnjAs6sl-1">
          <mxGeometry x="400" y="423" width="45.6" height="60" as="geometry" />
        </mxCell>
        <mxCell id="cTuRML4901w2NnjAs6sl-8" value="Managed Identity" style="text;html=1;align=center;verticalAlign=middle;whiteSpace=wrap;rounded=0;labelBackgroundColor=none;fontColor=#1890f1;fontSize=15;fontFamily=segoe ui;" vertex="1" parent="cTuRML4901w2NnjAs6sl-1">
          <mxGeometry x="320" y="494" width="200" height="20" as="geometry" />
        </mxCell>
        <mxCell id="cTuRML4901w2NnjAs6sl-12" style="edgeStyle=orthogonalEdgeStyle;rounded=0;orthogonalLoop=1;jettySize=auto;html=1;startArrow=classic;startFill=1;endArrow=none;endFill=0;" edge="1" parent="cTuRML4901w2NnjAs6sl-1">
          <mxGeometry relative="1" as="geometry">
            <mxPoint x="218.5" y="462" as="sourcePoint" />
            <mxPoint x="360" y="462" as="targetPoint" />
          </mxGeometry>
        </mxCell>
        <mxCell id="cTuRML4901w2NnjAs6sl-13" value="" style="group" vertex="1" connectable="0" parent="cTuRML4901w2NnjAs6sl-1">
          <mxGeometry x="118.5" y="433" width="98" height="28" as="geometry" />
        </mxCell>
        <mxCell id="cTuRML4901w2NnjAs6sl-14" value="" style="shape=image;verticalLabelPosition=bottom;labelBackgroundColor=default;verticalAlign=top;aspect=fixed;imageAspect=0;image=data:image/svg+xml,PHN2ZyB4bWxucz0iaHR0cDovL3d3dy53My5vcmcvMjAwMC9zdmciIHhtbG5zOnhsaW5rPSJodHRwOi8vd3d3LnczLm9yZy8xOTk5L3hsaW5rIiBkYXRhLXR5cGU9IjE3OSIgaWQ9IkZ4U3ltYm9sMC0wMjMiIHJvbGU9InByZXNlbnRhdGlvbiIgY2xhc3M9IiIgZGF0YS1pc2xvZ289InRydWUiIHZpZXdCb3g9IjAgMCAxOCAxOCI+PGc+PHRpdGxlLz48cGF0aCBmaWxsPSIjOTQ5NDk0IiBkPSJNLjUgMTUuMDhhLjE2LjE2IDAgMCAwIC4wOC4xNGwxLjE2LjY1TDMuNyAxN2EuMTcuMTcgMCAwIDAgLjIzLS4wNmwuNjYtMS4xMmEuMTYuMTYgMCAwIDAtLjA2LS4yMWwtMi4zLTEuM2EuMTcuMTcgMCAwIDEtLjA4LS4xNFYzLjg1YS4xNi4xNiAwIDAgMSAuMDgtLjE0bDIuMy0xLjNhLjE2LjE2IDAgMCAwIC4wNi0uMjFsLS42Ni0xLjEyQS4xNy4xNyAwIDAgMCAzLjcgMUwxLjc4IDIuMTFsLTEuMi42N2EuMTYuMTYgMCAwIDAtLjA4LjE0djEyLjE2eiIvPjxwYXRoIGZpbGw9IiNhM2EzYTMiIGQ9Ik0yLjE0IDMuNzdsLjA2LS4wNiAyLjMtMS4zYS4xNC4xNCAwIDAgMCAuMDYtLjIxTDMuOSAxLjA4QS4xNS4xNSAwIDAgMCAzLjY4IDFMMS43NSAyLjExbC0xLjE5LjY3cy0uMDUgMC0uMDYuMDZsLjkuNTF6TTQuNSAxNS41OWwtMi4zLTEuM2EuMjIuMjIgMCAwIDEtLjA3LS4wOWwtMS42MiAxaC4wNWwxLjE1LjY1IDIgMS4xMWEuMTUuMTUgMCAwIDAgLjIyLS4wNmwuNjYtMS4xMmEuMTQuMTQgMCAwIDAtLjA5LS4xOXoiLz48cGF0aCBmaWxsPSIjOTQ5NDk0IiBkPSJNMTcuNSAxNS4wOGEuMTYuMTYgMCAwIDEtLjA4LjE0bC0xLjE2LjY1TDE0LjMgMTdhLjE3LjE3IDAgMCAxLS4yMy0uMDZsLS42Ni0xLjEyYS4xNi4xNiAwIDAgMSAuMDYtLjIxbDIuMy0xLjNhLjE3LjE3IDAgMCAwIC4wOC0uMTRWMy44NWEuMTYuMTYgMCAwIDAtLjA4LS4xNGwtMi4zLTEuM2EuMTYuMTYgMCAwIDEtLjA2LS4yMWwuNjYtMS4xMkEuMTcuMTcgMCAwIDEgMTQuMyAxbDEuOTIgMS4wOSAxLjIuNjdhLjE2LjE2IDAgMCAxIC4wOC4xNHYxMi4xOHoiLz48cGF0aCBmaWxsPSIjYTNhM2EzIiBkPSJNMTUuODYgMy43N2wtLjA2LS4wNi0yLjMtMS4zYS4xNC4xNCAwIDAgMS0uMDYtLjIxbC42Ni0xLjEyYS4xNS4xNSAwIDAgMSAuMjItLjA4bDEuOTMgMS4wOSAxLjE5LjY3LjA2LjA2LS45LjUxek0xMy41IDE1LjU5bDIuMy0xLjNhLjIyLjIyIDAgMCAwIC4wNy0uMDlsMS42MiAxLTEuMTUuNjUtMiAxLjExYS4xNS4xNSAwIDAgMS0uMjItLjA2bC0uNjYtMS4xMmEuMTQuMTQgMCAwIDEgLjA0LS4xOXoiLz48cGF0aCBkPSJNMTQuMzEgNS45M3Y2LjE0bC01LjMyIDMuMDlWOS4wMWw1LjMyLTMuMDh6IiBmaWxsPSIjMzJiZWRkIi8+PHBhdGggZD0iTTE0LjMxIDUuOTNMOSA5LjAyIDMuNjggNS45MyA5IDIuODRsNS4zMSAzLjA5eiIgZmlsbD0iIzljZWJmZiIvPjxwYXRoIGQ9Ik04Ljk5IDkuMDJ2Ni4xNGwtNS4zMS0zLjA5VjUuOTNsNS4zMSAzLjA5eiIgZmlsbD0iIzUwZTZmZiIvPjxwYXRoIGQ9Ik0zLjY4IDEyLjA3bDUuMzEtMy4wNnY2LjE1bC01LjMxLTMuMDl6IiBmaWxsPSIjOWNlYmZmIi8+PHBhdGggZD0iTTE0LjMxIDEyLjA3TDguOTkgOS4wMXY2LjE1bDUuMzItMy4wOXoiIGZpbGw9IiM1MGU2ZmYiLz48L2c+PGRlZnM+JiN4YTs8L2RlZnM+JiN4YTs8L3N2Zz4=;" vertex="1" parent="cTuRML4901w2NnjAs6sl-13">
          <mxGeometry width="28" height="28" as="geometry" />
        </mxCell>
        <mxCell id="cTuRML4901w2NnjAs6sl-15" value="rg-app1" style="text;html=1;align=center;verticalAlign=bottom;whiteSpace=wrap;rounded=0;labelBackgroundColor=none;fontColor=#1890f1;fontSize=15;fontFamily=segoe ui;" vertex="1" parent="cTuRML4901w2NnjAs6sl-13">
          <mxGeometry x="28" y="4" width="70" height="20" as="geometry" />
        </mxCell>
        <mxCell id="cTuRML4901w2NnjAs6sl-16" value="" style="group" vertex="1" connectable="0" parent="cTuRML4901w2NnjAs6sl-1">
          <mxGeometry x="118.5" y="462" width="98" height="28" as="geometry" />
        </mxCell>
        <mxCell id="cTuRML4901w2NnjAs6sl-17" value="" style="shape=image;verticalLabelPosition=bottom;labelBackgroundColor=default;verticalAlign=top;aspect=fixed;imageAspect=0;image=data:image/svg+xml,PHN2ZyB4bWxucz0iaHR0cDovL3d3dy53My5vcmcvMjAwMC9zdmciIHhtbG5zOnhsaW5rPSJodHRwOi8vd3d3LnczLm9yZy8xOTk5L3hsaW5rIiBkYXRhLXR5cGU9IjE3OSIgaWQ9IkZ4U3ltYm9sMC0wMjMiIHJvbGU9InByZXNlbnRhdGlvbiIgY2xhc3M9IiIgZGF0YS1pc2xvZ289InRydWUiIHZpZXdCb3g9IjAgMCAxOCAxOCI+PGc+PHRpdGxlLz48cGF0aCBmaWxsPSIjOTQ5NDk0IiBkPSJNLjUgMTUuMDhhLjE2LjE2IDAgMCAwIC4wOC4xNGwxLjE2LjY1TDMuNyAxN2EuMTcuMTcgMCAwIDAgLjIzLS4wNmwuNjYtMS4xMmEuMTYuMTYgMCAwIDAtLjA2LS4yMWwtMi4zLTEuM2EuMTcuMTcgMCAwIDEtLjA4LS4xNFYzLjg1YS4xNi4xNiAwIDAgMSAuMDgtLjE0bDIuMy0xLjNhLjE2LjE2IDAgMCAwIC4wNi0uMjFsLS42Ni0xLjEyQS4xNy4xNyAwIDAgMCAzLjcgMUwxLjc4IDIuMTFsLTEuMi42N2EuMTYuMTYgMCAwIDAtLjA4LjE0djEyLjE2eiIvPjxwYXRoIGZpbGw9IiNhM2EzYTMiIGQ9Ik0yLjE0IDMuNzdsLjA2LS4wNiAyLjMtMS4zYS4xNC4xNCAwIDAgMCAuMDYtLjIxTDMuOSAxLjA4QS4xNS4xNSAwIDAgMCAzLjY4IDFMMS43NSAyLjExbC0xLjE5LjY3cy0uMDUgMC0uMDYuMDZsLjkuNTF6TTQuNSAxNS41OWwtMi4zLTEuM2EuMjIuMjIgMCAwIDEtLjA3LS4wOWwtMS42MiAxaC4wNWwxLjE1LjY1IDIgMS4xMWEuMTUuMTUgMCAwIDAgLjIyLS4wNmwuNjYtMS4xMmEuMTQuMTQgMCAwIDAtLjA5LS4xOXoiLz48cGF0aCBmaWxsPSIjOTQ5NDk0IiBkPSJNMTcuNSAxNS4wOGEuMTYuMTYgMCAwIDEtLjA4LjE0bC0xLjE2LjY1TDE0LjMgMTdhLjE3LjE3IDAgMCAxLS4yMy0uMDZsLS42Ni0xLjEyYS4xNi4xNiAwIDAgMSAuMDYtLjIxbDIuMy0xLjNhLjE3LjE3IDAgMCAwIC4wOC0uMTRWMy44NWEuMTYuMTYgMCAwIDAtLjA4LS4xNGwtMi4zLTEuM2EuMTYuMTYgMCAwIDEtLjA2LS4yMWwuNjYtMS4xMkEuMTcuMTcgMCAwIDEgMTQuMyAxbDEuOTIgMS4wOSAxLjIuNjdhLjE2LjE2IDAgMCAxIC4wOC4xNHYxMi4xOHoiLz48cGF0aCBmaWxsPSIjYTNhM2EzIiBkPSJNMTUuODYgMy43N2wtLjA2LS4wNi0yLjMtMS4zYS4xNC4xNCAwIDAgMS0uMDYtLjIxbC42Ni0xLjEyYS4xNS4xNSAwIDAgMSAuMjItLjA4bDEuOTMgMS4wOSAxLjE5LjY3LjA2LjA2LS45LjUxek0xMy41IDE1LjU5bDIuMy0xLjNhLjIyLjIyIDAgMCAwIC4wNy0uMDlsMS42MiAxLTEuMTUuNjUtMiAxLjExYS4xNS4xNSAwIDAgMS0uMjItLjA2bC0uNjYtMS4xMmEuMTQuMTQgMCAwIDEgLjA0LS4xOXoiLz48cGF0aCBkPSJNMTQuMzEgNS45M3Y2LjE0bC01LjMyIDMuMDlWOS4wMWw1LjMyLTMuMDh6IiBmaWxsPSIjMzJiZWRkIi8+PHBhdGggZD0iTTE0LjMxIDUuOTNMOSA5LjAyIDMuNjggNS45MyA5IDIuODRsNS4zMSAzLjA5eiIgZmlsbD0iIzljZWJmZiIvPjxwYXRoIGQ9Ik04Ljk5IDkuMDJ2Ni4xNGwtNS4zMS0zLjA5VjUuOTNsNS4zMSAzLjA5eiIgZmlsbD0iIzUwZTZmZiIvPjxwYXRoIGQ9Ik0zLjY4IDEyLjA3bDUuMzEtMy4wNnY2LjE1bC01LjMxLTMuMDl6IiBmaWxsPSIjOWNlYmZmIi8+PHBhdGggZD0iTTE0LjMxIDEyLjA3TDguOTkgOS4wMXY2LjE1bDUuMzItMy4wOXoiIGZpbGw9IiM1MGU2ZmYiLz48L2c+PGRlZnM+JiN4YTs8L2RlZnM+JiN4YTs8L3N2Zz4=;" vertex="1" parent="cTuRML4901w2NnjAs6sl-16">
          <mxGeometry width="28" height="28" as="geometry" />
        </mxCell>
        <mxCell id="cTuRML4901w2NnjAs6sl-18" value="rg-app2" style="text;html=1;align=center;verticalAlign=bottom;whiteSpace=wrap;rounded=0;labelBackgroundColor=none;fontColor=#1890f1;fontSize=15;fontFamily=segoe ui;" vertex="1" parent="cTuRML4901w2NnjAs6sl-16">
          <mxGeometry x="28" y="4" width="70" height="20" as="geometry" />
        </mxCell>
      </root>
    </mxGraphModel>
  </diagram>
</mxfile>
